<svg xmlns="http://www.w3.org/2000/svg" viewBox="0 0 520 520"><rect width="520" height="520" rx="34" fill="#fffdf8"/><rect x="96" y="280" width="328" height="104" rx="30" stroke="#c9c9c9" stroke-width="8" fill="none"/><path d="M140 280 L184 206 Q202 182 238 182 H314 Q348 182 372 208 L404 280" stroke="#c9c9c9" stroke-width="8" stroke-linecap="round" stroke-linejoin="round" fill="none"/><path d="M198 214 H250 V270 H164 Z" stroke="#c9c9c9" stroke-width="8" stroke-linecap="round" stroke-linejoin="round" fill="none"/><path d="M266 214 H312 Q338 216 362 270 H266 Z" stroke="#c9c9c9" stroke-width="8" stroke-linecap="round" stroke-linejoin="round" fill="none"/><circle cx="178" cy="390" r="48" stroke="#c9c9c9" stroke-width="8" fill="none"/><circle cx="178" cy="390" r="20" stroke="#c9c9c9" stroke-width="5" fill="none"/><circle cx="350" cy="390" r="48" stroke="#c9c9c9" stroke-width="8" fill="none"/><circle cx="350" cy="390" r="20" stroke="#c9c9c9" stroke-width="5" fill="none"/><path d="M110 322 H156" stroke="#ff7a1a" stroke-width="7" stroke-linecap="round" stroke-linejoin="round" fill="none"/><path d="M366 322 H412" stroke="#ff7a1a" stroke-width="7" stroke-linecap="round" stroke-linejoin="round" fill="none"/><path d="M258 282 V368" stroke="#ff7a1a" stroke-width="6" stroke-linecap="round" stroke-linejoin="round" fill="none"/><circle cx="386" cy="330" r="10" stroke="#ff7a1a" stroke-width="5" fill="none"/><circle cx="128" cy="330" r="10" stroke="#ff7a1a" stroke-width="5" fill="none"/></svg>