<svg xmlns="http://www.w3.org/2000/svg" viewBox="0 0 520 520"><rect width="520" height="520" rx="34" fill="#fffdf8"/><ellipse cx="250" cy="300" rx="120" ry="105" stroke="#263238" stroke-width="7" fill="#7dcc70"/><circle cx="332" cy="200" r="70" stroke="#263238" stroke-width="7" fill="#7dcc70"/><path d="M286 242 C272 266 274 294 290 318" stroke="#263238" stroke-width="7" stroke-linecap="round" stroke-linejoin="round" fill="none"/><path d="M148 308 C96 296 68 330 52 370 C96 362 126 352 158 336" stroke="#263238" stroke-width="7" stroke-linecap="round" stroke-linejoin="round" fill="#7dcc70"/><path d="M198 374 C190 408 194 438 186 470" stroke="#263238" stroke-width="9" stroke-linecap="round" stroke-linejoin="round" fill="none"/><path d="M284 382 C286 416 292 444 304 470" stroke="#263238" stroke-width="9" stroke-linecap="round" stroke-linejoin="round" fill="none"/><path d="M164 470 H210" stroke="#263238" stroke-width="9" stroke-linecap="round" stroke-linejoin="round" fill="none"/><path d="M282 470 H330" stroke="#263238" stroke-width="9" stroke-linecap="round" stroke-linejoin="round" fill="none"/><path d="M172 212 L150 158 L210 190 L214 128 L258 184 L300 140 L312 190" stroke="#263238" stroke-width="7" stroke-linecap="round" stroke-linejoin="round" fill="#ffbd4a"/><circle cx="354" cy="184" r="10" stroke="#263238" stroke-width="5" fill="#263238"/><path d="M342 226 Q374 248 398 220" stroke="#263238" stroke-width="6" stroke-linecap="round" stroke-linejoin="round" fill="none"/><path d="M292 298 Q340 310 356 342" stroke="#263238" stroke-width="7" stroke-linecap="round" stroke-linejoin="round" fill="none"/><path d="M354 342 Q374 332 384 350" stroke="#263238" stroke-width="6" stroke-linecap="round" stroke-linejoin="round" fill="none"/><circle cx="218" cy="338" r="18" stroke="#263238" stroke-width="4" fill="#5ab95b"/><circle cx="270" cy="344" r="14" stroke="#263238" stroke-width="4" fill="#5ab95b"/><circle cx="310" cy="302" r="16" stroke="#263238" stroke-width="4" fill="#5ab95b"/></svg>