<svg xmlns="http://www.w3.org/2000/svg" viewBox="0 0 520 520"><rect width="520" height="520" rx="34" fill="#fffdf8"/><circle cx="260" cy="190" r="42" stroke="#c9c9c9" stroke-width="8" fill="none"/><ellipse cx="260" cy="100" rx="46" ry="72" stroke="" stroke-width="#c9c9c9" fill="none"/><ellipse cx="350" cy="190" rx="72" ry="46" stroke="" stroke-width="#c9c9c9" fill="none"/><ellipse cx="260" cy="280" rx="46" ry="72" stroke="" stroke-width="#c9c9c9" fill="none"/><ellipse cx="170" cy="190" rx="72" ry="46" stroke="" stroke-width="#c9c9c9" fill="none"/><ellipse cx="326" cy="124" rx="42" ry="65" stroke="rotate(45 326 124)" stroke-width="#c9c9c9" fill="none"/><ellipse cx="326" cy="256" rx="42" ry="65" stroke="rotate(-45 326 256)" stroke-width="#c9c9c9" fill="none"/><ellipse cx="194" cy="256" rx="42" ry="65" stroke="rotate(45 194 256)" stroke-width="#c9c9c9" fill="none"/><ellipse cx="194" cy="124" rx="42" ry="65" stroke="rotate(-45 194 124)" stroke-width="#c9c9c9" fill="none"/><path d="M260 322 C250 372 264 430 258 482" stroke="#c9c9c9" stroke-width="8" stroke-linecap="round" stroke-linejoin="round" fill="none"/><path d="M255 388 C202 350 164 366 145 414 C192 426 228 416 258 395" stroke="#ff7a1a" stroke-width="8" stroke-linecap="round" stroke-linejoin="round" fill="none"/><path d="M260 430 C308 388 352 402 378 444 C333 466 295 456 260 438" stroke="#ff7a1a" stroke-width="8" stroke-linecap="round" stroke-linejoin="round" fill="none"/></svg>