<svg xmlns="http://www.w3.org/2000/svg" viewBox="0 0 520 520"><rect width="520" height="520" rx="34" fill="#fffdf8"/><path d="M260 322 C250 372 264 430 258 482" stroke="#57b65c" stroke-width="15" stroke-linecap="round" stroke-linejoin="round" fill="none"/><path d="M255 388 C202 350 164 366 145 414 C192 426 228 416 258 395" stroke="#57b65c" stroke-width="9" stroke-linecap="round" stroke-linejoin="round" fill="#7bd16c"/><path d="M260 430 C308 388 352 402 378 444 C333 466 295 456 260 438" stroke="#57b65c" stroke-width="9" stroke-linecap="round" stroke-linejoin="round" fill="#7bd16c"/><ellipse cx="260" cy="100" rx="46" ry="72" stroke="" stroke-width="#263238" fill="6" transform="#ff8eb1"/><ellipse cx="350" cy="190" rx="72" ry="46" stroke="" stroke-width="#263238" fill="6" transform="#ff8eb1"/><ellipse cx="260" cy="280" rx="46" ry="72" stroke="" stroke-width="#263238" fill="6" transform="#ff8eb1"/><ellipse cx="170" cy="190" rx="72" ry="46" stroke="" stroke-width="#263238" fill="6" transform="#ff8eb1"/><ellipse cx="326" cy="124" rx="42" ry="65" stroke="rotate(45 326 124)" stroke-width="#263238" fill="6" transform="#ff8eb1"/><ellipse cx="326" cy="256" rx="42" ry="65" stroke="rotate(-45 326 256)" stroke-width="#263238" fill="6" transform="#ff8eb1"/><ellipse cx="194" cy="256" rx="42" ry="65" stroke="rotate(45 194 256)" stroke-width="#263238" fill="6" transform="#ff8eb1"/><ellipse cx="194" cy="124" rx="42" ry="65" stroke="rotate(-45 194 124)" stroke-width="#263238" fill="6" transform="#ff8eb1"/><circle cx="260" cy="190" r="42" stroke="#263238" stroke-width="6" fill="#ffd84d"/></svg>